<?xml version="1.0" encoding="utf-8"?>
<!-- Generator: Adobe Illustrator 24.3.0, SVG Export Plug-In . SVG Version: 6.00 Build 0)  -->
<svg version="1.1" id="Layer_1" xmlns="http://www.w3.org/2000/svg" xmlns:xlink="http://www.w3.org/1999/xlink" x="0px" y="0px"
	 viewBox="0 0 250 250" style="enable-background:new 0 0 250 250;" xml:space="preserve">
<style type="text/css">
	.st0{opacity:0.56;fill:#D2EAF9;}
	.st1{fill:#8EC9EE;}
	.st2{fill:#D2EAF9;}
	.st3{fill:#21418D;}
	.st4{fill:#2A5BAA;}
	.st5{fill:#6293CD;}
	.st6{opacity:0.45;fill:#22386F;}
	.st7{fill:#E6E6E5;}
	.st8{fill:#F59391;}
	.st9{fill:#F8B3B1;}
	.st10{fill:#ACCFE4;}
	.st11{fill:#FAA947;}
</style>
<g>
	<ellipse class="st0" cx="124.92" cy="191.98" rx="74.86" ry="12.81"/>
	<path class="st1" d="M118.13,184.36c-26.25-5.53-46.26-24.95-57.86-56.18c-8.26-22.24-9.38-42.82-9.43-43.69l-0.45-8.9l70.19-24.81
		l70.19,24.81l-0.45,8.9c-0.04,0.86-1.17,21.45-9.43,43.69c-11.6,31.22-31.6,50.65-57.86,56.18l-2.46,0.52L118.13,184.36z"/>
	<path class="st2" d="M176.19,85.2l-55.6-19.65v0l0,0l0,0v0L64.99,85.2c0,0,3.77,74.46,55.6,85.38v0c0,0,0,0,0,0c0,0,0,0,0,0v0
		C172.43,159.67,176.19,85.2,176.19,85.2z"/>
	<g>
		<polygon class="st3" points="120.46,163.01 145.95,159.37 168.36,159.37 188.39,163.29 153.93,180.66 		"/>
		<path class="st3" d="M167.25,181.36c0,0-45.1-24.79-50.43-16.67c-7.69,11.74,4.06,17.65,45.94,28.85L167.25,181.36z"/>
		<g>
			<path class="st4" d="M179.69,193.75L179.69,193.75c1.12-2.7-0.16-5.79-2.86-6.91l-10.41-4.31l-4.04,9.77l10.41,4.31
				C175.48,197.73,178.57,196.45,179.69,193.75z"/>
			<path class="st5" d="M165.75,184.11l7.88,3.26c1.83,0.76,2.7,2.85,1.95,4.68c-0.76,1.83-2.86,2.7-4.69,1.94l-7.88-3.26
				L165.75,184.11z"/>
			<path class="st6" d="M163.05,190.65l10.41,4.31c2.42,1,5.14,0.07,6.48-2.07c-0.07,0.29-0.14,0.58-0.26,0.86
				c-1.12,2.7-4.21,3.98-6.91,2.86l-10.41-4.31L163.05,190.65z"/>
			<path class="st7" d="M166.49,190.81l1.66-4.02c0.08-0.2,0.32-0.3,0.52-0.22l0,0c0.2,0.08,0.3,0.32,0.22,0.52l-1.67,4.02
				c-0.08,0.2-0.32,0.3-0.52,0.22l0,0C166.51,191.25,166.41,191.02,166.49,190.81z"/>
			<path class="st7" d="M168.95,191.83l1.67-4.02c0.08-0.2,0.32-0.3,0.52-0.22l0,0c0.2,0.08,0.3,0.32,0.22,0.52l-1.66,4.02
				c-0.08,0.2-0.32,0.3-0.52,0.22l0,0C168.96,192.27,168.86,192.03,168.95,191.83z"/>
			<path class="st7" d="M171.64,192.95l1.66-4.02c0.08-0.2,0.32-0.3,0.52-0.22l0,0c0.2,0.08,0.3,0.32,0.22,0.52l-1.66,4.02
				c-0.08,0.2-0.32,0.3-0.52,0.22l0,0C171.66,193.38,171.56,193.15,171.64,192.95z"/>
		</g>
		<path class="st5" d="M183.59,147.85c-0.69-2.38-4.15-6.42-7.21-14.69c-3.19-8.6-16.79-9.53-16.79-9.53l-5.28,2.82l-5.28-2.82
			c0,0-13.6,0.93-16.79,9.53c-3.07,8.27-6.52,12.31-7.21,14.69c-0.69,2.38,3.05,17.8,13.8,19.99h15.06h0.82h15.06
			C180.54,165.65,184.29,150.23,183.59,147.85z"/>
		<g>
			<g id="XMLID_30_">
				<path class="st8" d="M160.18,123.69v4.23c0,0-0.98,4.72-5.58,5.51c-4.8-1.07-5.54-5.51-5.54-5.51v-4.23H160.18z"/>
			</g>
			<g>
				<path id="XMLID_29_" class="st3" d="M144.06,115.38c0,0-1.57-9.88,2.19-11.08c1.02-0.33,0.28-3.59,6-3.63
					c7.81-0.05,13.97-1.11,12.95,14.85L144.06,115.38z"/>
				<path class="st9" d="M149.01,116.47c0-1.49-1.21-2.7-2.7-2.7c-1.49,0-2.7,1.21-2.7,2.7c0,1.49,1.21,2.7,2.7,2.7
					C147.8,119.17,149.01,117.96,149.01,116.47z"/>
				<path class="st9" d="M165.45,116.47c0-1.49-1.21-2.7-2.7-2.7c-1.49,0-2.7,1.21-2.7,2.7c0,1.49,1.21,2.7,2.7,2.7
					C164.25,119.17,165.45,117.96,165.45,116.47z"/>
				<path class="st9" d="M163.61,111.9l-0.01-0.01v0c0,0,0,0-0.01,0c-0.11-0.03-2.26-0.75-2.68-3.58l-1.18,0.33
					c-3.27,0.91-6.75,0.88-10-0.1l-0.94-0.24c-0.41,2.83-2.67,3.55-2.79,3.58c0,0-0.02,0-0.02,0l-0.07,4.38
					c0,2.55,1.07,5.64,2.8,8.02c1.4,1.94,3.67,3.06,6.05,3.06s4.66-1.12,6.05-3.06c1.72-2.38,2.8-5.48,2.8-8.02l0-4.36L163.61,111.9
					z"/>
			</g>
		</g>
		<path class="st2" d="M168.81,148.12h-28.45c-1.58,0-2.87,1.28-2.87,2.87v17.05c0,1.58,1.28,2.87,2.87,2.87h28.45
			c1.58,0,2.87-1.28,2.87-2.87v-17.05C171.68,149.4,170.4,148.12,168.81,148.12z"/>
		<circle class="st1" cx="154.49" cy="159.27" r="3.55"/>
		<path class="st3" d="M140.49,181.36c0,0,45.1-24.79,50.43-16.67c7.69,11.74-4.06,17.65-45.94,28.85L140.49,181.36z"/>
		<g>
			<path class="st4" d="M128.05,193.75L128.05,193.75c-1.12-2.7,0.16-5.79,2.86-6.91l10.41-4.31l4.04,9.77l-10.41,4.31
				C132.26,197.73,129.17,196.45,128.05,193.75z"/>
			<path class="st5" d="M144.73,190.72l-7.88,3.26c-1.83,0.76-3.93-0.12-4.69-1.94c-0.76-1.83,0.12-3.92,1.95-4.68l7.88-3.26
				L144.73,190.72z"/>
			<path class="st6" d="M144.69,190.65l-10.41,4.31c-2.42,1-5.14,0.07-6.48-2.07c0.07,0.29,0.14,0.58,0.26,0.86
				c1.12,2.7,4.21,3.98,6.91,2.86l10.41-4.31L144.69,190.65z"/>
			<path class="st7" d="M141.25,190.81l-1.66-4.02c-0.08-0.2-0.32-0.3-0.52-0.22l0,0c-0.2,0.08-0.3,0.32-0.22,0.52l1.66,4.02
				c0.08,0.2,0.32,0.3,0.52,0.22l0,0C141.23,191.25,141.33,191.02,141.25,190.81z"/>
			<path class="st7" d="M138.79,191.83l-1.66-4.02c-0.08-0.2-0.32-0.3-0.52-0.22l0,0c-0.2,0.08-0.3,0.32-0.22,0.52l1.66,4.02
				c0.08,0.2,0.32,0.3,0.52,0.22l0,0C138.78,192.27,138.88,192.03,138.79,191.83z"/>
			<path class="st7" d="M136.1,192.95l-1.66-4.02c-0.08-0.2-0.32-0.3-0.52-0.22l0,0c-0.2,0.08-0.3,0.32-0.22,0.52l1.66,4.02
				c0.08,0.2,0.32,0.3,0.52,0.22l0,0C136.08,193.38,136.18,193.15,136.1,192.95z"/>
		</g>
	</g>
	<g>
		<g>
			<g>
				<path class="st3" d="M71.67,163.32c0,0-11.95-19.08-8.25-21.84c3.7-2.76,7.32,8.47,9.22,6.66c1.89-1.8-6.59-17.84-2.59-21.29
					c4.01-3.45,3.71,8.26,7.11,10.44s-1.84-15.96,2.23-18.8c4.07-2.83,6.03,6.19,6.03,6.19s4.51-17.96,10.58-14.44
					c6.07,3.52-9.31,21.61-5.7,20.99c3.61-0.62,7.32-6.72,10.45-2.61s-17.38,14.59-14.09,14.32c3.29-0.27,9.11-4.35,10.12-0.71
					c1.01,3.63-16.64,10.19-14.81,11.45c1.83,1.26,11.06-5.87,12.51-0.62C95.94,158.3,75.33,166.66,71.67,163.32z"/>
				<path class="st2" d="M70.22,170.77c2.23-3.72,4.09-7.75,5.53-11.99c0.76-2.23,1.4-4.53,2.03-6.76c0.28-1.01,0.57-2.03,0.86-3.04
					c3.29-11.28,7.95-22.17,13.83-32.35l0.23,0.13c-5.87,10.16-10.51,21.03-13.8,32.29c-0.29,1.01-0.58,2.02-0.86,3.04
					c-0.63,2.23-1.27,4.54-2.03,6.77c-1.45,4.26-3.31,8.31-5.55,12.05L70.22,170.77z"/>
				<path class="st2" d="M83.25,135.47c-0.02-0.02-0.04-0.04-0.05-0.07c-1.34-4.1-2.25-8.36-2.7-12.66
					c-0.01-0.07,0.05-0.14,0.12-0.15c0.07-0.01,0.14,0.05,0.15,0.12c0.45,4.28,1.35,8.52,2.69,12.6c0.02,0.07-0.02,0.15-0.09,0.17
					C83.33,135.51,83.28,135.5,83.25,135.47z"/>
				<path class="st2" d="M81.57,140.43c-0.01-0.01-0.02-0.02-0.03-0.03c-0.04-0.06-0.03-0.14,0.03-0.19
					c3.7-2.71,7.53-5.5,11.64-7.74c0.75-0.41,1.56-0.83,2.45-1.04c0.07-0.02,0.15,0.03,0.16,0.1c0.02,0.07-0.03,0.14-0.1,0.16
					c-0.85,0.21-1.64,0.62-2.38,1.02c-4.09,2.23-7.91,5.02-11.61,7.72C81.68,140.46,81.62,140.46,81.57,140.43z"/>
				<path class="st2" d="M78.9,148.56c-0.01-0.01-0.03-0.02-0.04-0.04c-1.56-2.35-3.54-5.49-4.96-8.89
					c-0.97-2.32-1.69-4.77-2.39-7.14c-0.02-0.07,0.02-0.15,0.09-0.17c0.07-0.02,0.15,0.02,0.17,0.09c0.7,2.36,1.42,4.8,2.38,7.11
					c1.42,3.38,3.38,6.5,4.94,8.84c0.04,0.06,0.02,0.15-0.04,0.19C79,148.59,78.94,148.59,78.9,148.56z"/>
				<path class="st2" d="M78.86,148.68c-0.05-0.03-0.07-0.1-0.05-0.16c0.03-0.07,0.1-0.11,0.17-0.08c0.38,0.14,0.8,0.08,1.21,0.01
					c1.09-0.21,2.16-0.61,3.19-0.99c0.19-0.07,0.39-0.14,0.58-0.21c3.05-1.11,6.24-1.96,9.32-2.79c0.07-0.02,0.15,0.02,0.16,0.1
					c0.02,0.07-0.02,0.15-0.1,0.16c-3.08,0.82-6.26,1.67-9.3,2.78c-0.19,0.07-0.38,0.14-0.58,0.21c-1.04,0.39-2.12,0.79-3.23,1
					c-0.42,0.08-0.91,0.14-1.35-0.02C78.88,148.69,78.87,148.69,78.86,148.68z"/>
				<path class="st2" d="M75.59,159.41c-3.57-2.46-7.66-9.07-10.08-13.99c-0.03-0.07-0.01-0.15,0.06-0.18
					c0.07-0.03,0.15-0.01,0.18,0.06c2.41,4.89,6.47,11.46,10,13.89c0.06,0.04,0.08,0.13,0.03,0.19
					C75.73,159.43,75.65,159.45,75.59,159.41z"/>
				<path class="st2" d="M75.82,159.51c-0.03-0.02-0.06-0.05-0.09-0.07c-0.06-0.05-0.07-0.13-0.02-0.19
					c0.05-0.06,0.14-0.06,0.19-0.02c0.51,0.41,1.26,0.28,2.01,0.08l13.03-3.57c0.07-0.02,0.15,0.02,0.17,0.09
					c0.02,0.07-0.02,0.15-0.09,0.17l-13.03,3.57C77.2,159.78,76.41,159.91,75.82,159.51z"/>
			</g>
			<g>
				<path class="st5" d="M70.08,162.97c0,0-20.68-8.96-19.2-13.34c1.48-4.38,10.85,2.83,11.39,0.27
					c0.54-2.56-15.56-10.98-14.21-16.1c1.35-5.12,7.75,4.72,11.79,4.58s-10.58-12.13-8.83-16.77c1.75-4.65,8.49,1.68,8.49,1.68
					s-6.47-17.38,0.54-17.92c7.01-0.54,4.58,23.11,7.21,20.55c2.63-2.56,2.22-9.7,7.14-8.08c4.92,1.62-6.06,21.89-3.5,19.81
					c2.56-2.09,5.05-8.76,7.95-6.33c2.9,2.43-7.95,17.85-5.73,17.85c2.22,0,5.79-11.12,9.97-7.61
					C87.26,145.05,75,163.65,70.08,162.97z"/>
				<path class="st2" d="M73.11,169.94c-0.27-4.33-1.03-8.71-2.25-13.03c-0.64-2.27-1.41-4.53-2.16-6.73c-0.34-1-0.68-2-1.01-3
					c-3.68-11.18-6.02-22.8-6.95-34.54l0.27-0.02c0.92,11.72,3.26,23.31,6.93,34.47c0.33,1,0.67,2,1.01,3
					c0.75,2.2,1.53,4.47,2.17,6.74c1.22,4.34,1.98,8.74,2.25,13.09L73.11,169.94z"/>
				<path class="st2" d="M63.84,133.42c-0.03,0-0.06-0.01-0.08-0.03c-3.44-2.62-6.6-5.62-9.41-8.91c-0.05-0.06-0.04-0.14,0.02-0.19
					c0.06-0.05,0.14-0.04,0.19,0.02c2.79,3.28,5.95,6.26,9.37,8.87c0.06,0.05,0.07,0.13,0.03,0.19
					C63.92,133.4,63.88,133.42,63.84,133.42z"/>
				<path class="st2" d="M65.26,138.46c-0.01,0-0.03,0-0.04-0.01c-0.07-0.02-0.11-0.1-0.08-0.17c1.52-4.33,3.09-8.82,5.21-12.99
					c0.39-0.77,0.82-1.57,1.43-2.25c0.05-0.06,0.14-0.06,0.19-0.01c0.06,0.05,0.06,0.13,0.01,0.19c-0.58,0.65-1.01,1.44-1.39,2.19
					c-2.11,4.16-3.68,8.63-5.2,12.96C65.37,138.43,65.32,138.46,65.26,138.46z"/>
				<path class="st2" d="M67.67,146.69c-0.02,0-0.03,0-0.05-0.01c-2.62-1.05-6.03-2.52-9.14-4.52c-2.12-1.36-4.1-2.97-6.02-4.53
					c-0.06-0.05-0.07-0.13-0.02-0.19c0.05-0.06,0.13-0.07,0.19-0.02c1.91,1.55,3.89,3.16,6,4.52c3.09,1.99,6.48,3.45,9.09,4.49
					c0.07,0.03,0.1,0.11,0.07,0.18C67.77,146.66,67.72,146.69,67.67,146.69z"/>
				<path class="st2" d="M67.7,146.81c-0.06,0-0.11-0.04-0.13-0.1c-0.02-0.07,0.02-0.15,0.1-0.16c0.39-0.1,0.71-0.39,1-0.68
					c0.78-0.79,1.44-1.73,2.07-2.63c0.12-0.17,0.24-0.34,0.36-0.5c1.89-2.65,4.03-5.16,6.11-7.59c0.05-0.06,0.13-0.06,0.19-0.01
					c0.06,0.05,0.06,0.13,0.01,0.19c-2.07,2.42-4.21,4.93-6.09,7.57c-0.12,0.17-0.24,0.33-0.35,0.5c-0.64,0.91-1.3,1.85-2.1,2.66
					c-0.3,0.3-0.67,0.63-1.12,0.75C67.73,146.81,67.71,146.81,67.7,146.81z"/>
				<path class="st2" d="M71.09,157.52c-4.34,0-11.47-3.14-16.26-5.82c-0.06-0.04-0.09-0.12-0.05-0.18
					c0.04-0.07,0.12-0.09,0.18-0.05c4.76,2.67,11.84,5.79,16.13,5.79c0.07,0,0.13,0.06,0.13,0.13
					C71.22,157.46,71.16,157.52,71.09,157.52z"/>
				<path class="st2" d="M71.34,157.47c-0.04,0-0.08,0-0.12-0.01c-0.07-0.01-0.13-0.07-0.12-0.15c0.01-0.07,0.08-0.13,0.15-0.12
					c0.65,0.05,1.2-0.48,1.7-1.08l8.73-10.34c0.05-0.06,0.13-0.06,0.19-0.02c0.06,0.05,0.06,0.13,0.02,0.19l-8.73,10.34
					C72.63,156.91,72.06,157.47,71.34,157.47z"/>
			</g>
		</g>
		<g>
			<path class="st2" d="M60.93,166.17l3.3,20.44c0.47,2.9,2.97,5.03,5.91,5.03H80.2c2.94,0,5.44-2.13,5.91-5.03l3.3-20.44H60.93z"/>
			<path class="st10" d="M89.41,166.17H83.8H60.93l0.46,2.83h21.96l-2.85,17.61c-0.47,2.9-2.97,5.03-5.91,5.03h5.61
				c2.94,0,5.44-2.13,5.91-5.03L88.95,169l0,0L89.41,166.17z"/>
			<path class="st2" d="M89.72,160.29H60.61c-1.64,0-2.98,1.34-2.98,2.98l0,0c0,1.64,1.34,2.98,2.98,2.98h29.12
				c1.64,0,2.98-1.34,2.98-2.98l0,0C92.7,161.63,91.36,160.29,89.72,160.29z"/>
		</g>
	</g>
	<g>
		<path class="st11" d="M200.76,75.06h-58.63c-1.66,0-3.02,1.36-3.02,3.02v13.94c0,1.66,1.36,3.02,3.02,3.02h58.63
			c1.66,0,3.02-1.36,3.02-3.02V78.08C203.78,76.42,202.42,75.06,200.76,75.06z"/>
		<g>
			<path class="st3" d="M153.11,92.03h-8.06c-0.69,0-1.26-0.56-1.26-1.26v-5.51c0-0.69,0.56-1.26,1.26-1.26h8.06
				c0.69,0,1.26,0.56,1.26,1.26v5.51C154.37,91.47,153.81,92.03,153.11,92.03z"/>
			<path class="st3" d="M152.74,83.1h-1v-1.58c0-1.47-1.19-2.66-2.66-2.66s-2.66,1.19-2.66,2.66v1.58h-1v-1.58
				c0-2.02,1.64-3.65,3.66-3.65c2.02,0,3.65,1.64,3.65,3.65V83.1z"/>
			<path class="st11" d="M150.2,86.96c0-0.62-0.5-1.11-1.11-1.11c-0.62,0-1.11,0.5-1.11,1.11c0,0.41,0.23,0.77,0.57,0.96l-0.39,2.2
				h1.87l-0.38-2.2C149.97,87.73,150.2,87.37,150.2,86.96z"/>
		</g>
		<g>
			<circle class="st3" cx="166.08" cy="85.64" r="1.83"/>
			<circle class="st3" cx="173.06" cy="85.64" r="1.83"/>
			<path class="st3" d="M181.86,85.64c0,1.01-0.82,1.83-1.83,1.83s-1.83-0.82-1.83-1.83c0-1.01,0.82-1.83,1.83-1.83
				S181.86,84.63,181.86,85.64z"/>
			<path class="st3" d="M188.84,85.64c0,1.01-0.82,1.83-1.83,1.83c-1.01,0-1.83-0.82-1.83-1.83c0-1.01,0.82-1.83,1.83-1.83
				C188.02,83.81,188.84,84.63,188.84,85.64z"/>
			<path class="st3" d="M195.82,85.64c0,1.01-0.82,1.83-1.83,1.83c-1.01,0-1.83-0.82-1.83-1.83c0-1.01,0.82-1.83,1.83-1.83
				C195,83.81,195.82,84.63,195.82,85.64z"/>
		</g>
	</g>
	<g>
		<path class="st5" d="M107.62,48.74v24.34c0,1.71-1.41,3.12-3.12,3.12H60.01c-1.72,0-3.13-1.41-3.13-3.12V48.74
			c0-1.71,1.41-3.12,3.13-3.12h44.49C106.21,45.63,107.62,47.03,107.62,48.74z"/>
		<rect x="56.88" y="54.15" class="st3" width="50.73" height="6.88"/>
		<g>
			<path class="st3" d="M103.69,65.04H91.06c-0.63,0-1.15,0.51-1.15,1.15l0,0c0,0.63,0.51,1.15,1.15,1.15h12.62
				c0.63,0,1.15-0.51,1.15-1.15l0,0C104.83,65.55,104.32,65.04,103.69,65.04z"/>
			<path class="st3" d="M103.69,69.52h-5.74c-0.63,0-1.15,0.51-1.15,1.15l0,0c0,0.63,0.51,1.15,1.15,1.15h5.74
				c0.63,0,1.15-0.51,1.15-1.15l0,0C104.83,70.04,104.32,69.52,103.69,69.52z"/>
		</g>
	</g>
</g>
</svg>
